PathFileType	4	(X/Y/Z)	SUBJ89_1_walk_RCNL2025.trc
DataRate	CameraRate	NumFrames	NumMarkers	Units	OrigDataRate	OrigDataStartFrame	OrigNumFrames
100	100	7	25	mm	100	183	243
Frame#	Time	R_Shoulder			L_Shoulder			C7			J_Notch			R_Elbow			L_Elbow			R_Wrist			L_Wrist			R_Asis			L_Asis			Sacral			Thoracic			Sternum			R_Thigh_Lateral			R_Knee_Lateral			R_Shank_Lateral			R_Ankle_Lateral			R_Heel			R_Toe			L_Thigh_Lateral			L_Knee_Lateral			L_Shank_Lateral			L_Ankle_Lateral			L_Heel			L_Toe		
		X1	Y1	Z1	X2	Y2	Z2	X3	Y3	Z3	X4	Y4	Z4	X5	Y5	Z5	X6	Y6	Z6	X7	Y7	Z7	X8	Y8	Z8	X9	Y9	Z9	X10	Y10	Z10	X11	Y11	Z11	X12	Y12	Z12	X13	Y13	Z13	X14	Y14	Z14	X15	Y15	Z15	X16	Y16	Z16	X17	Y17	Z17	X18	Y18	Z18	X19	Y19	Z19	X20	Y20	Z20	X21	Y21	Z21	X22	Y22	Z22	X23	Y23	Z23	X24	Y24	Z24	X25	Y25	Z25
183	1.82000000	631.902588	1386.320801	424.318054	593.792542	1405.447266	12.336320	545.118530	1485.267700	227.763123	665.047546	1360.260620	218.711365	590.019043	1055.240601	484.743927	511.565552	1070.714111	-26.300655	750.441376	838.734619	443.394882	591.967438	816.830627	-63.269115	635.545044	969.003540	343.661530	648.413208	964.446960	105.346878	476.214905	1027.423584	224.461411	461.190948	1312.594360	227.855591	693.061768	1210.926025	206.820770	511.285095	594.285095	394.933533	464.793640	483.073730	334.431671	376.190887	272.489044	370.511169	301.779663	80.912994	286.662354	264.132263	79.210724	240.163696	454.687622	36.145195	281.091339	730.710693	559.848694	7.867695	767.757385	494.506134	80.875465	810.537231	267.390808	33.258495	885.994873	79.415794	98.818840	849.604248	71.916389	149.436829	1036.887695	106.859795	107.869278
184	1.83000000	646.702759	1383.870483	422.731384	608.733521	1401.951538	10.782573	560.145752	1482.576782	225.793961	679.966675	1357.319092	217.395935	605.868164	1052.809814	483.775146	524.811218	1067.795654	-26.847883	768.322662	837.898499	441.741379	597.255463	812.050171	-65.632484	649.514832	966.531433	343.835785	663.672485	961.448730	105.452065	490.740601	1024.562744	223.402176	475.997925	1310.250122	226.457321	707.775513	1207.928955	206.105347	520.827087	593.059204	394.996674	473.159271	482.246185	334.224243	380.469879	273.283905	370.235291	302.695923	83.014221	286.320343	265.149872	81.932961	239.807693	454.818604	36.147129	281.002716	744.056824	555.279114	7.935551	782.380432	491.985535	81.419441	832.232178	266.298798	32.806889	911.997192	79.764359	98.356789	874.988647	71.051834	148.467560	1062.437012	110.898987	109.671013
185	1.84000000	661.597290	1381.619751	421.048828	623.855286	1398.529419	9.132374	575.296204	1480.021484	223.690460	695.033752	1354.524414	215.996796	621.538330	1050.575073	482.619049	538.415039	1064.968140	-27.483170	785.744812	837.029510	440.175964	602.804810	807.572357	-67.807850	663.676697	964.130676	343.999298	679.090271	958.606445	105.572670	505.454681	1021.868408	222.283371	490.967590	1308.025391	224.964188	722.653320	1205.081299	205.339172	531.005493	591.853149	395.060699	482.347961	481.339081	334.032654	385.580780	274.145905	370.175751	303.834320	85.459724	286.461823	266.253265	85.119423	240.052795	454.966583	36.157467	280.958069	758.966797	552.012390	8.152799	797.411743	489.717255	81.931145	851.605957	264.960083	32.793640	933.915466	79.454842	98.421150	896.509583	69.998932	148.191269	1084.050171	112.645988	111.272942
186	1.85000000	676.580811	1379.619995	419.274109	639.169678	1395.222778	7.378735	590.574707	1477.648315	221.446579	710.256592	1351.920288	214.513794	637.009521	1048.583618	481.284454	552.349854	1062.272827	-28.210461	802.684753	836.155731	438.712296	608.705811	803.453644	-69.791512	678.070801	961.798340	344.126343	694.650391	955.982239	105.672729	520.374512	1019.392273	221.146500	506.109009	1305.954468	223.371658	737.709229	1202.428101	204.510529	541.912048	590.647705	395.106598	492.426514	480.335022	333.861450	391.590820	275.071533	370.343475	305.246674	88.293472	287.129791	267.493835	88.838860	240.948593	455.130157	36.165100	280.970642	775.391968	550.139404	8.514079	812.882874	487.740509	82.429428	868.671509	263.313477	33.230556	951.759521	78.358490	98.943863	914.161438	68.667511	148.545807	1101.811035	111.799057	112.609795
187	1.86000000	691.649780	1377.916626	417.412415	654.691650	1392.076294	5.516387	605.983154	1475.504272	219.059280	725.635742	1349.549927	212.946198	652.259460	1046.877808	479.780518	566.579651	1059.750122	-29.030302	819.120941	835.307465	437.360428	615.048553	799.737396	-71.582394	692.734680	959.535339	344.187897	710.338013	953.657288	105.707321	535.512329	1017.184509	220.040756	521.423950	1304.073975	221.673813	752.954468	1200.017700	203.604324	553.623840	589.425659	395.101776	503.447693	479.228455	333.700500	398.515137	276.081177	370.715485	306.993103	91.570534	288.316467	268.954895	93.162941	242.482376	455.301788	36.153809	281.046844	792.993896	549.472778	8.997687	828.776550	486.102783	82.934311	883.635498	261.423981	34.068123	965.795044	76.526314	99.795219	928.159912	67.106369	149.380005	1116.020264	108.292862	113.681709
188	1.87000000	706.803223	1376.549072	415.470093	670.434448	1389.135864	3.544681	621.517639	1473.638916	216.530441	741.161682	1347.458008	211.292953	667.267273	1045.494263	478.116821	581.061584	1057.440552	-29.938862	835.032776	834.515533	436.127106	621.919373	796.455170	-73.180614	707.705994	957.359192	344.147888	726.136414	951.730225	105.628563	550.872437	1015.300110	219.021027	536.905273	1302.427002	219.865021	768.395081	1197.903564	202.605072	566.211304	588.174133	395.003601	515.458130	478.027283	333.531189	406.338348	277.220276	371.243805	309.150543	95.355247	289.962494	270.758698	98.164558	244.576416	455.468384	36.103558	281.184235	811.262573	549.693420	9.567011	845.019653	484.860840	83.451515	896.879150	259.466003	35.203606	976.528259	74.177917	100.822128	938.941650	65.499374	150.504272	1127.180908	102.329597	114.535835
189	1.88000000	722.042725	1375.551758	413.454529	686.402771	1386.448975	1.469978	637.167053	1472.105591	213.866943	756.814697	1345.693359	209.552856	682.016174	1044.466187	476.303375	595.750061	1055.385742	-30.928202	850.399719	833.809845	435.016968	629.401550	793.633789	-74.588131	723.018738	955.310730	343.963257	742.023804	950.308655	105.392319	566.446838	1013.801086	218.144775	552.536743	1301.065308	217.945175	784.029663	1196.145264	201.499222	579.745911	586.888428	394.765717	528.508118	476.752167	333.334229	415.043762	278.556091	371.869171	311.821564	99.717064	291.964111	273.072357	103.914963	247.094284	455.616455	35.994606	281.370331	829.695190	550.554749	10.169506	861.493286	484.078064	83.966599	908.911926	257.686127	36.492313	984.642151	71.648735	101.874672	947.111328	64.114052	151.726227	1135.936157	94.375908	115.246391
